# xmcd CD database file
#
# Track frame offsets:
#	150
#	12124
#	24725
#	35632
#	45257
#	54058
#	62612
#	76086
#	85358
#	93235
#	104915
#	114463
#	124798
#	137600
#	147529
#	155945
#	165492
#	175663
#	186844
#	197490
#	204747
#	212945
#	226681
#	236790
#	249576
#
# Disc length: 3456 seconds
#
# Revision: 0
# Processed by: cddbd v1.5.2PL0 Copyright (c) Steve Scherf et al.
# Submitted via: CDex 1.51
#
DISCID=560d7e19
DTITLE=Les Paul and Mary Ford - The Very Best Of Les Paul and Mary Ford
DYEAR=2008
DGENRE=Jazz
TTITLE0=Brazil
TTITLE1=Lover
TTITLE2=Little Rock Getaway
TTITLE3=Chicken Reel
TTITLE4=I Can't Give You Anything But Love
TTITLE5=Just One More Chance
TTITLE6=I'm Forever Blowing Bubbles
TTITLE7=Bye Bye Blues
TTITLE8=Mammy's Boogie
TTITLE9=Frankie and Johnny
TTITLE10=How High The Moon
TTITLE11=Mockin' Bird Hill
TTITLE12=Vaya Con Dios (May God Be With You)
TTITLE13=The World Is Waiting For The Sunrise
TTITLE14=Meet Mister Callaghan
TTITLE15=Tiger Rag
TTITLE16=I'm Sitting On Top Of The World
TTITLE17=The Best Things In Life Are Free
TTITLE18=Twelfth Street Rag
TTITLE19=Tico, Tico
TTITLE20=I'm Movin' On
TTITLE21=That Old Feeling
TTITLE22=I Surrender, Dear
TTITLE23=How Deep Is The Ocean
TTITLE24=If I Had You
EXTD=YEAR: 2008
EXTT0=
EXTT1=
EXTT2=
EXTT3=
EXTT4=
EXTT5=
EXTT6=
EXTT7=
EXTT8=
EXTT9=
EXTT10=
EXTT11=
EXTT12=
EXTT13=
EXTT14=
EXTT15=
EXTT16=
EXTT17=
EXTT18=
EXTT19=
EXTT20=
EXTT21=
EXTT22=
EXTT23=
EXTT24=
PLAYORDER=
